<svg width="1170" height="265" viewBox="0 0 1170 265" fill="none" xmlns="http://www.w3.org/2000/svg">
<circle cx="5.3379" cy="5.3379" r="5.3379" fill="#FF6CB3" fill-opacity="0.2"/>
<circle cx="60.4962" cy="5.3379" r="5.3379" fill="#FF6CB3" fill-opacity="0.2"/>
<circle cx="115.654" cy="5.3379" r="5.3379" fill="#FF6CB3" fill-opacity="0.2"/>
<circle cx="170.813" cy="5.3379" r="5.3379" fill="#FF6CB3" fill-opacity="0.2"/>
<circle cx="225.971" cy="5.3379" r="5.3379" fill="#FF6CB3" fill-opacity="0.2"/>
<circle cx="281.129" cy="5.3379" r="5.3379" fill="#FF6CB3" fill-opacity="0.2"/>
<circle cx="336.288" cy="5.3379" r="5.3379" fill="#FF6CB3" fill-opacity="0.2"/>
<circle cx="391.446" cy="5.3379" r="5.3379" fill="#FF6CB3" fill-opacity="0.2"/>
<circle cx="446.604" cy="5.3379" r="5.3379" fill="#FF6CB3" fill-opacity="0.2"/>
<circle cx="501.763" cy="5.3379" r="5.3379" fill="#FF6CB3" fill-opacity="0.2"/>
<circle cx="556.921" cy="5.3379" r="5.3379" fill="#FF6CB3" fill-opacity="0.2"/>
<circle cx="612.079" cy="5.3379" r="5.3379" fill="#FF6CB3" fill-opacity="0.2"/>
<circle cx="667.237" cy="5.3379" r="5.3379" fill="#FF6CB3" fill-opacity="0.2"/>
<circle cx="722.396" cy="5.3379" r="5.3379" fill="#FF6CB3" fill-opacity="0.2"/>
<circle cx="777.554" cy="5.3379" r="5.3379" fill="#FF6CB3" fill-opacity="0.2"/>
<circle cx="832.712" cy="5.3379" r="5.3379" fill="#FF6CB3" fill-opacity="0.2"/>
<circle cx="887.871" cy="5.3379" r="5.3379" fill="#FF6CB3" fill-opacity="0.2"/>
<circle cx="943.029" cy="5.3379" r="5.3379" fill="#FF6CB3" fill-opacity="0.2"/>
<circle cx="998.187" cy="5.3379" r="5.3379" fill="#FF6CB3" fill-opacity="0.2"/>
<circle cx="1053.35" cy="5.3379" r="5.3379" fill="#FF6CB3" fill-opacity="0.2"/>
<circle cx="1108.5" cy="5.3379" r="5.3379" fill="#FF6CB3" fill-opacity="0.2"/>
<circle cx="1163.66" cy="5.3379" r="5.3379" fill="#FF6CB3" fill-opacity="0.2"/>
<circle cx="5.3379" cy="55.3379" r="5.3379" fill="#FF6CB3" fill-opacity="0.2"/>
<circle cx="60.4962" cy="55.3379" r="5.3379" fill="#FF6CB3" fill-opacity="0.2"/>
<circle cx="115.654" cy="55.3379" r="5.3379" fill="#FF6CB3" fill-opacity="0.2"/>
<circle cx="170.813" cy="55.3379" r="5.3379" fill="#FF6CB3" fill-opacity="0.2"/>
<circle cx="225.971" cy="55.3379" r="5.3379" fill="#FF6CB3" fill-opacity="0.2"/>
<circle cx="281.129" cy="55.3379" r="5.3379" fill="#FF6CB3" fill-opacity="0.2"/>
<circle cx="336.288" cy="55.3379" r="5.3379" fill="#FF6CB3" fill-opacity="0.2"/>
<circle cx="391.446" cy="55.3379" r="5.3379" fill="#FF6CB3" fill-opacity="0.2"/>
<circle cx="446.604" cy="55.3379" r="5.3379" fill="#FF6CB3" fill-opacity="0.2"/>
<circle cx="501.763" cy="55.3379" r="5.3379" fill="#FF6CB3" fill-opacity="0.2"/>
<circle cx="556.921" cy="55.3379" r="5.3379" fill="#FF6CB3" fill-opacity="0.2"/>
<circle cx="612.079" cy="55.3379" r="5.3379" fill="#FF6CB3" fill-opacity="0.2"/>
<circle cx="667.237" cy="55.3379" r="5.3379" fill="#FF6CB3" fill-opacity="0.2"/>
<circle cx="722.396" cy="55.3379" r="5.3379" fill="#FF6CB3" fill-opacity="0.2"/>
<circle cx="777.554" cy="55.3379" r="5.3379" fill="#FF6CB3" fill-opacity="0.2"/>
<circle cx="832.712" cy="55.3379" r="5.3379" fill="#FF6CB3" fill-opacity="0.2"/>
<circle cx="887.871" cy="55.3379" r="5.3379" fill="#FF6CB3" fill-opacity="0.2"/>
<circle cx="943.029" cy="55.3379" r="5.3379" fill="#FF6CB3" fill-opacity="0.2"/>
<circle cx="998.187" cy="55.3379" r="5.3379" fill="#FF6CB3" fill-opacity="0.2"/>
<circle cx="1053.35" cy="55.3379" r="5.3379" fill="#FF6CB3" fill-opacity="0.2"/>
<circle cx="1108.5" cy="55.3379" r="5.3379" fill="#FF6CB3" fill-opacity="0.2"/>
<circle cx="1163.66" cy="55.3379" r="5.3379" fill="#FF6CB3" fill-opacity="0.2"/>
<circle cx="5.3379" cy="105.338" r="5.3379" fill="#FF6CB3" fill-opacity="0.2"/>
<circle cx="60.4962" cy="105.338" r="5.3379" fill="#FF6CB3" fill-opacity="0.2"/>
<circle cx="115.654" cy="105.338" r="5.3379" fill="#FF6CB3" fill-opacity="0.2"/>
<circle cx="170.813" cy="105.338" r="5.3379" fill="#FF6CB3" fill-opacity="0.2"/>
<circle cx="225.971" cy="105.338" r="5.3379" fill="#FF6CB3" fill-opacity="0.2"/>
<circle cx="281.129" cy="105.338" r="5.3379" fill="#FF6CB3" fill-opacity="0.2"/>
<circle cx="336.288" cy="105.338" r="5.3379" fill="#FF6CB3" fill-opacity="0.2"/>
<circle cx="391.446" cy="105.338" r="5.3379" fill="#FF6CB3" fill-opacity="0.2"/>
<circle cx="446.604" cy="105.338" r="5.3379" fill="#FF6CB3" fill-opacity="0.2"/>
<circle cx="501.763" cy="105.338" r="5.3379" fill="#FF6CB3" fill-opacity="0.2"/>
<circle cx="556.921" cy="105.338" r="5.3379" fill="#FF6CB3" fill-opacity="0.2"/>
<circle cx="612.079" cy="105.338" r="5.3379" fill="#FF6CB3" fill-opacity="0.2"/>
<circle cx="667.237" cy="105.338" r="5.3379" fill="#FF6CB3" fill-opacity="0.2"/>
<circle cx="722.396" cy="105.338" r="5.3379" fill="#FF6CB3" fill-opacity="0.2"/>
<circle cx="777.554" cy="105.338" r="5.3379" fill="#FF6CB3" fill-opacity="0.2"/>
<circle cx="832.712" cy="105.338" r="5.3379" fill="#FF6CB3" fill-opacity="0.2"/>
<circle cx="887.871" cy="105.338" r="5.3379" fill="#FF6CB3" fill-opacity="0.2"/>
<circle cx="943.029" cy="105.338" r="5.3379" fill="#FF6CB3" fill-opacity="0.2"/>
<circle cx="998.187" cy="105.338" r="5.3379" fill="#FF6CB3" fill-opacity="0.2"/>
<circle cx="1053.35" cy="105.338" r="5.3379" fill="#FF6CB3" fill-opacity="0.2"/>
<circle cx="1108.5" cy="105.338" r="5.3379" fill="#FF6CB3" fill-opacity="0.2"/>
<circle cx="1163.66" cy="105.338" r="5.3379" fill="#FF6CB3" fill-opacity="0.2"/>
<circle cx="6.3379" cy="159.338" r="5.3379" fill="#FF6CB3" fill-opacity="0.2"/>
<circle cx="61.4962" cy="159.338" r="5.3379" fill="#FF6CB3" fill-opacity="0.2"/>
<circle cx="116.654" cy="159.338" r="5.3379" fill="#FF6CB3" fill-opacity="0.2"/>
<circle cx="171.813" cy="159.338" r="5.3379" fill="#FF6CB3" fill-opacity="0.2"/>
<circle cx="226.971" cy="159.338" r="5.3379" fill="#FF6CB3" fill-opacity="0.2"/>
<circle cx="282.129" cy="159.338" r="5.3379" fill="#FF6CB3" fill-opacity="0.2"/>
<circle cx="337.288" cy="159.338" r="5.3379" fill="#FF6CB3" fill-opacity="0.2"/>
<circle cx="392.446" cy="159.338" r="5.3379" fill="#FF6CB3" fill-opacity="0.2"/>
<circle cx="447.604" cy="159.338" r="5.3379" fill="#FF6CB3" fill-opacity="0.2"/>
<circle cx="502.763" cy="159.338" r="5.3379" fill="#FF6CB3" fill-opacity="0.2"/>
<circle cx="557.921" cy="159.338" r="5.3379" fill="#FF6CB3" fill-opacity="0.2"/>
<circle cx="613.079" cy="159.338" r="5.3379" fill="#FF6CB3" fill-opacity="0.2"/>
<circle cx="668.237" cy="159.338" r="5.3379" fill="#FF6CB3" fill-opacity="0.2"/>
<circle cx="723.396" cy="159.338" r="5.3379" fill="#FF6CB3" fill-opacity="0.2"/>
<circle cx="778.554" cy="159.338" r="5.3379" fill="#FF6CB3" fill-opacity="0.2"/>
<circle cx="833.712" cy="159.338" r="5.3379" fill="#FF6CB3" fill-opacity="0.2"/>
<circle cx="888.871" cy="159.338" r="5.3379" fill="#FF6CB3" fill-opacity="0.2"/>
<circle cx="944.029" cy="159.338" r="5.3379" fill="#FF6CB3" fill-opacity="0.2"/>
<circle cx="999.187" cy="159.338" r="5.3379" fill="#FF6CB3" fill-opacity="0.2"/>
<circle cx="1054.35" cy="159.338" r="5.3379" fill="#FF6CB3" fill-opacity="0.2"/>
<circle cx="1109.5" cy="159.338" r="5.3379" fill="#FF6CB3" fill-opacity="0.2"/>
<circle cx="1164.66" cy="159.338" r="5.3379" fill="#FF6CB3" fill-opacity="0.2"/>
<circle cx="6.3379" cy="209.338" r="5.3379" fill="#FF6CB3" fill-opacity="0.2"/>
<circle cx="61.4962" cy="209.338" r="5.3379" fill="#FF6CB3" fill-opacity="0.2"/>
<circle cx="116.654" cy="209.338" r="5.3379" fill="#FF6CB3" fill-opacity="0.2"/>
<circle cx="171.813" cy="209.338" r="5.3379" fill="#FF6CB3" fill-opacity="0.2"/>
<circle cx="226.971" cy="209.338" r="5.3379" fill="#FF6CB3" fill-opacity="0.2"/>
<circle cx="282.129" cy="209.338" r="5.3379" fill="#FF6CB3" fill-opacity="0.2"/>
<circle cx="337.288" cy="209.338" r="5.3379" fill="#FF6CB3" fill-opacity="0.2"/>
<circle cx="392.446" cy="209.338" r="5.3379" fill="#FF6CB3" fill-opacity="0.2"/>
<circle cx="447.604" cy="209.338" r="5.3379" fill="#FF6CB3" fill-opacity="0.2"/>
<circle cx="502.763" cy="209.338" r="5.3379" fill="#FF6CB3" fill-opacity="0.2"/>
<circle cx="557.921" cy="209.338" r="5.3379" fill="#FF6CB3" fill-opacity="0.2"/>
<circle cx="613.079" cy="209.338" r="5.3379" fill="#FF6CB3" fill-opacity="0.2"/>
<circle cx="668.237" cy="209.338" r="5.3379" fill="#FF6CB3" fill-opacity="0.2"/>
<circle cx="723.396" cy="209.338" r="5.3379" fill="#FF6CB3" fill-opacity="0.2"/>
<circle cx="778.554" cy="209.338" r="5.3379" fill="#FF6CB3" fill-opacity="0.2"/>
<circle cx="833.712" cy="209.338" r="5.3379" fill="#FF6CB3" fill-opacity="0.2"/>
<circle cx="888.871" cy="209.338" r="5.3379" fill="#FF6CB3" fill-opacity="0.2"/>
<circle cx="944.029" cy="209.338" r="5.3379" fill="#FF6CB3" fill-opacity="0.2"/>
<circle cx="999.187" cy="209.338" r="5.3379" fill="#FF6CB3" fill-opacity="0.2"/>
<circle cx="1054.35" cy="209.338" r="5.3379" fill="#FF6CB3" fill-opacity="0.2"/>
<circle cx="1109.5" cy="209.338" r="5.3379" fill="#FF6CB3" fill-opacity="0.2"/>
<circle cx="1164.66" cy="209.338" r="5.3379" fill="#FF6CB3" fill-opacity="0.2"/>
<circle cx="6.3379" cy="259.338" r="5.3379" fill="#FF6CB3" fill-opacity="0.2"/>
<circle cx="61.4962" cy="259.338" r="5.3379" fill="#FF6CB3" fill-opacity="0.2"/>
<circle cx="116.654" cy="259.338" r="5.3379" fill="#FF6CB3" fill-opacity="0.2"/>
<circle cx="171.813" cy="259.338" r="5.3379" fill="#FF6CB3" fill-opacity="0.2"/>
<circle cx="226.971" cy="259.338" r="5.3379" fill="#FF6CB3" fill-opacity="0.2"/>
<circle cx="282.129" cy="259.338" r="5.3379" fill="#FF6CB3" fill-opacity="0.2"/>
<circle cx="337.288" cy="259.338" r="5.3379" fill="#FF6CB3" fill-opacity="0.2"/>
<circle cx="392.446" cy="259.338" r="5.3379" fill="#FF6CB3" fill-opacity="0.2"/>
<circle cx="447.604" cy="259.338" r="5.3379" fill="#FF6CB3" fill-opacity="0.2"/>
<circle cx="502.763" cy="259.338" r="5.3379" fill="#FF6CB3" fill-opacity="0.2"/>
<circle cx="557.921" cy="259.338" r="5.3379" fill="#FF6CB3" fill-opacity="0.2"/>
<circle cx="613.079" cy="259.338" r="5.3379" fill="#FF6CB3" fill-opacity="0.2"/>
<circle cx="668.237" cy="259.338" r="5.3379" fill="#FF6CB3" fill-opacity="0.2"/>
<circle cx="723.396" cy="259.338" r="5.3379" fill="#FF6CB3" fill-opacity="0.2"/>
<circle cx="778.554" cy="259.338" r="5.3379" fill="#FF6CB3" fill-opacity="0.2"/>
<circle cx="833.712" cy="259.338" r="5.3379" fill="#FF6CB3" fill-opacity="0.2"/>
<circle cx="888.871" cy="259.338" r="5.3379" fill="#FF6CB3" fill-opacity="0.2"/>
<circle cx="944.029" cy="259.338" r="5.3379" fill="#FF6CB3" fill-opacity="0.2"/>
<circle cx="999.187" cy="259.338" r="5.3379" fill="#FF6CB3" fill-opacity="0.2"/>
<circle cx="1054.35" cy="259.338" r="5.3379" fill="#FF6CB3" fill-opacity="0.2"/>
<circle cx="1109.5" cy="259.338" r="5.3379" fill="#FF6CB3" fill-opacity="0.2"/>
<circle cx="1164.66" cy="259.338" r="5.3379" fill="#FF6CB3" fill-opacity="0.2"/>
</svg>
