<svg width="1440" height="827" viewBox="0 0 1440 827" fill="none" xmlns="http://www.w3.org/2000/svg">
<rect width="1440" height="827" fill="url(#paint0_linear)"/>
<rect x="663" width="443" height="827" fill="url(#paint1_linear)"/>
<rect x="615" y="156.922" width="62" height="62" rx="30" transform="rotate(-40.0834 615 156.922)" fill="white" fill-opacity="0.15"/>
<circle cx="1213.5" cy="392.5" r="5.5" fill="#FF6CB3" fill-opacity="0.5"/>
<circle cx="1213.5" cy="435.5" r="5.5" fill="#FF6CB3" fill-opacity="0.5"/>
<circle cx="1213.5" cy="478.5" r="5.5" fill="#FF6CB3" fill-opacity="0.5"/>
<circle cx="1213.5" cy="521.5" r="5.5" fill="#FF6CB3" fill-opacity="0.5"/>
<circle cx="1213.5" cy="564.5" r="5.5" fill="#FF6CB3" fill-opacity="0.5"/>
<circle cx="1271.5" cy="392.5" r="5.5" fill="#FF6CB3" fill-opacity="0.5"/>
<circle cx="1271.5" cy="435.5" r="5.5" fill="#FF6CB3" fill-opacity="0.5"/>
<circle cx="1271.5" cy="478.5" r="5.5" fill="#FF6CB3" fill-opacity="0.5"/>
<circle cx="1271.5" cy="521.5" r="5.5" fill="#FF6CB3" fill-opacity="0.5"/>
<circle cx="1271.5" cy="564.5" r="5.5" fill="#FF6CB3" fill-opacity="0.5"/>
<circle cx="1329.5" cy="392.5" r="5.5" fill="#FF6CB3" fill-opacity="0.5"/>
<circle cx="1329.5" cy="435.5" r="5.5" fill="#FF6CB3" fill-opacity="0.5"/>
<circle cx="1329.5" cy="478.5" r="5.5" fill="#FF6CB3" fill-opacity="0.5"/>
<circle cx="1329.5" cy="521.5" r="5.5" fill="#FF6CB3" fill-opacity="0.5"/>
<circle cx="1329.5" cy="564.5" r="5.5" fill="#FF6CB3" fill-opacity="0.5"/>
<circle cx="1387.5" cy="392.5" r="5.5" fill="#FF6CB3" fill-opacity="0.5"/>
<circle cx="1387.5" cy="435.5" r="5.5" fill="#FF6CB3" fill-opacity="0.5"/>
<circle cx="1387.5" cy="478.5" r="5.5" fill="#FF6CB3" fill-opacity="0.5"/>
<circle cx="1387.5" cy="521.5" r="5.5" fill="#FF6CB3" fill-opacity="0.5"/>
<circle cx="1387.5" cy="564.5" r="5.5" fill="#FF6CB3" fill-opacity="0.5"/>
<defs>
<linearGradient id="paint0_linear" x1="11.5" y1="13.7833" x2="1352.19" y2="929.236" gradientUnits="userSpaceOnUse">
<stop stop-color="#51509C"/>
<stop offset="1" stop-color="#9942D8"/>
</linearGradient>
<linearGradient id="paint1_linear" x1="884.5" y1="0" x2="884.5" y2="827" gradientUnits="userSpaceOnUse">
<stop stop-color="#AD48BE"/>
<stop offset="1" stop-color="#C4C4C4" stop-opacity="0"/>
</linearGradient>
</defs>
</svg>
