<svg width="25" height="25" viewBox="0 0 25 25" fill="none" xmlns="http://www.w3.org/2000/svg">
<path d="M21.3375 3.66492C18.9763 1.30366 15.8401 0 12.4998 0C9.1595 0 6.02337 1.29843 3.66212 3.65969C-0.892855 8.21466 -1.2227 15.4921 2.83489 20.4241C2.27468 21.5707 1.60976 22.3351 0.866307 22.7016C0.41081 22.9267 0.154265 23.4188 0.227563 23.9215C0.306097 24.4293 0.693532 24.822 1.20139 24.9005C1.47887 24.9424 1.7773 24.9686 2.0862 24.9686C3.62023 24.9686 5.2328 24.4398 6.57835 23.5131C8.38987 24.4869 10.4265 25 12.4998 25C15.8401 25 18.9763 23.7016 21.3375 21.3403C23.6988 18.9791 24.9972 15.8377 24.9972 12.5026C24.9972 9.16754 23.6988 6.02618 21.3375 3.66492ZM20.3375 20.3403C18.2433 22.4346 15.4579 23.5864 12.4998 23.5864C10.5208 23.5864 8.57835 23.0576 6.88725 22.0628C6.7773 22 6.65165 21.9634 6.53123 21.9634C6.3794 21.9634 6.22233 22.0157 6.09667 22.1099C4.49458 23.3508 2.88201 23.534 2.17521 23.5497C3.01814 22.9215 3.72495 21.9476 4.31657 20.5916C4.42652 20.3403 4.3794 20.0471 4.19615 19.8377C0.321804 15.4607 0.525993 8.79058 4.66212 4.65445C6.75636 2.56021 9.5417 1.40838 12.4998 1.40838C15.4632 1.40838 18.2433 2.56021 20.3375 4.65445C24.6621 8.98429 24.6621 16.0209 20.3375 20.3403Z" fill="#52509D"/>
<path d="M15.6719 6.77487C14.541 6.77487 13.4782 7.21466 12.6771 8.01571L12.4991 8.19372L12.3211 8.01571C11.5201 7.21466 10.4572 6.77487 9.32634 6.77487C8.20069 6.77487 7.13786 7.21466 6.34205 8.01047C5.541 8.81152 5.10121 9.87435 5.10645 11C5.10645 12.1309 5.55147 13.1885 6.34728 13.9895L11.9965 19.6387C12.1326 19.7749 12.3159 19.8482 12.4939 19.8482C12.6719 19.8482 12.8551 19.7801 12.9913 19.644L18.6562 14C19.4572 13.199 19.897 12.1361 19.897 11.0105C19.897 9.87958 19.4572 8.81676 18.6614 8.01571C17.8604 7.21466 16.7975 6.77487 15.6719 6.77487ZM17.6562 13L12.4939 18.1414L7.34205 12.9895C6.80802 12.4555 6.51482 11.7487 6.51482 10.9948C6.51482 10.2408 6.80802 9.53403 7.33681 9.00524C7.86561 8.47644 8.57241 8.18325 9.32634 8.18325C10.0803 8.18325 10.7871 8.47644 11.3211 9.01047L12.0017 9.6911C12.2792 9.96859 12.7242 9.96859 13.0017 9.6911L13.6771 9.01571C14.2112 8.48168 14.918 8.18848 15.6719 8.18848C16.4206 8.18848 17.1274 8.48168 17.6614 9.01571C18.1955 9.54974 18.4886 10.2565 18.4834 11.0052C18.4834 11.7592 18.1902 12.466 17.6562 13Z" fill="#52509D"/>
</svg>
