<svg width="30" height="30" viewBox="0 0 30 30" fill="none" xmlns="http://www.w3.org/2000/svg">
<path d="M19.7062 22.49V21.3022H23.1465C23.2873 21.3022 23.4017 21.188 23.4017 21.0471V18.5844C23.4017 18.4434 23.2873 18.3293 23.1465 18.3293H19.7062V17.141C19.7062 17.0377 19.6441 16.9447 19.5487 16.9054C19.4534 16.8659 19.3436 16.8877 19.2707 16.9606L16.5962 19.6351C16.5484 19.6831 16.5216 19.7481 16.5216 19.8156C16.5216 19.8834 16.5484 19.9483 16.5962 19.9962L19.2707 22.6707C19.3436 22.7437 19.4534 22.7655 19.5487 22.7259C19.6442 22.6862 19.7062 22.5933 19.7062 22.49Z" fill="#52509D"/>
<path d="M25.6413 14.7089C24.4076 13.3384 22.7336 12.4621 20.9181 12.2343C20.8557 12.1134 20.757 11.9369 20.7296 11.8894L20.6568 11.7599C20.9382 11.3295 21.0805 10.8824 21.0805 10.4295V7.78989C21.0805 7.39994 20.9725 7.00807 20.7621 6.63008L20.7397 6.58672C20.8205 6.38287 20.8599 6.19069 20.8599 6.00143C20.8599 4.93127 19.8335 4.02981 17.8919 3.39436C16.2381 2.85318 13.9954 2.54276 11.7385 2.54276C9.48124 2.54276 7.23798 2.85318 5.58446 3.39442C3.64267 4.02998 2.61646 4.93162 2.61646 6.00219C2.61646 6.19063 2.65583 6.38258 2.73663 6.58678L2.71583 6.62574C2.50413 7.00953 2.39685 7.40123 2.39685 7.78994V10.4295C2.39685 10.8847 2.53923 11.3311 2.82042 11.758L2.74601 11.8879C2.51427 12.2901 2.39673 12.7003 2.39673 13.1072V15.7472C2.39673 16.1904 2.53185 16.6267 2.79856 17.0448L2.74601 17.1361C2.51427 17.5382 2.39673 17.9479 2.39673 18.3535V20.9952C2.39673 22.202 3.37606 23.3134 5.15433 24.1252C6.88923 24.9172 9.22771 25.3533 11.7385 25.3533C12.6604 25.3533 13.5912 25.2889 14.5066 25.1619C15.9571 26.6427 17.8907 27.4572 19.9614 27.4572C24.1751 27.4572 27.6032 24.0293 27.6032 19.8155C27.6033 17.9279 26.9065 16.1142 25.6413 14.7089ZM5.96163 4.65705C7.48296 4.15233 9.53462 3.87436 11.7386 3.87436C13.9417 3.87436 15.9931 4.1525 17.5153 4.65752C18.9049 5.1186 19.5267 5.66516 19.5267 6.00225C19.5267 6.34045 18.9049 6.88836 17.5152 7.34979C15.9938 7.85498 13.9423 8.13319 11.7386 8.13319C9.53444 8.13319 7.48272 7.85498 5.96169 7.34979C4.57267 6.88848 3.95104 6.34051 3.95104 6.00225C3.95099 5.66475 4.57261 5.11789 5.96163 4.65705ZM3.73032 8.58653C5.24509 9.63453 8.31692 10.2992 11.7386 10.2992C15.1578 10.2992 18.2305 9.6343 19.7482 8.586V10.4306C19.7482 11.1106 18.9345 11.8612 17.5716 12.4383C16.0199 13.0955 13.9483 13.4575 11.7385 13.4575C9.52894 13.4575 7.45759 13.0955 5.90608 12.4384C4.5436 11.8613 3.73021 11.1107 3.73021 10.4306L3.73032 8.58653ZM11.7386 24.0184C9.52958 24.0184 7.45812 23.6566 5.90608 22.9997C4.54366 22.4231 3.73026 21.6736 3.73026 20.9951V18.8892C5.37019 20.1645 8.38384 20.9454 11.7386 20.9454C11.9649 20.9454 12.1859 20.9345 12.4003 20.9229C12.5563 21.9902 12.943 23.022 13.5271 23.933C12.9325 23.9897 12.3323 24.0184 11.7386 24.0184ZM12.3948 18.7473C12.1825 18.7601 11.9639 18.772 11.7386 18.772C9.52929 18.772 7.45788 18.4102 5.90614 17.7531C4.54372 17.1762 3.73026 16.4263 3.73026 15.7471V13.6399C5.36679 14.9158 8.3802 15.6972 11.7386 15.6972C12.3256 15.6972 12.9344 15.6659 13.59 15.6018C12.9627 16.5481 12.5528 17.6257 12.3948 18.7473ZM19.9615 25.5903C16.7773 25.5903 14.1868 22.9997 14.1868 19.8155C14.1868 16.6314 16.7773 14.041 19.9615 14.041C23.1458 14.041 25.7363 16.6314 25.7363 19.8155C25.7363 22.9997 23.1458 25.5903 19.9615 25.5903Z" fill="#52509D"/>
</svg>
