<svg width="30" height="30" viewBox="0 0 30 30" fill="none" xmlns="http://www.w3.org/2000/svg">
<path d="M28.091 14.6068L24.5754 7.57559C24.4052 7.27687 24.1662 7.08984 23.7891 7.08984H6.21093C5.84343 7.08984 5.59769 7.27219 5.4246 7.57559L1.90897 14.6068C1.7462 14.9525 1.80192 15.2999 2.03261 15.5771L14.3373 29.6982C14.5043 29.8898 14.7457 30 15 30C15.2543 30 15.4957 29.8898 15.6627 29.6982L27.9674 15.5771C28.1966 15.3013 28.2548 14.9544 28.091 14.6068ZM22.367 8.84766L20.1234 13.3348L16.7578 8.84766H22.367ZM18.5156 14.1211H11.4844L15 9.43359L18.5156 14.1211ZM13.2422 8.84766L9.87655 13.3348L7.633 8.84766H13.2422ZM6.21093 9.93398L8.30448 14.1211H4.11737L6.21093 9.93398ZM4.62714 15.8789H9.14589L13.4789 26.0379L4.62714 15.8789ZM15 25.1232L11.0572 15.8789H18.9428L15 25.1232ZM16.5211 26.0379L20.8541 15.8789H25.3728L16.5211 26.0379ZM21.6955 14.1211L23.7891 9.93398L25.8826 14.1211H21.6955Z" fill="#52509D"/>
<path d="M15 0C14.5146 0 14.1211 0.393516 14.1211 0.878906V2.69531C14.1211 3.1807 14.5146 3.57422 15 3.57422C15.4854 3.57422 15.8789 3.1807 15.8789 2.69531V0.878906C15.8789 0.393516 15.4854 0 15 0Z" fill="#52509D"/>
<path d="M11.2711 3.87578L10.0282 2.63283C9.68497 2.28959 9.12844 2.28959 8.7852 2.63283C8.44196 2.97607 8.44196 3.53254 8.7852 3.87578L10.0282 5.11873C10.3713 5.46197 10.9279 5.46203 11.2711 5.11873C11.6143 4.77548 11.6143 4.21902 11.2711 3.87578Z" fill="#52509D"/>
<path d="M21.2147 2.63283C20.8716 2.28959 20.315 2.28959 19.9718 2.63283L18.7288 3.87578C18.3856 4.21902 18.3856 4.77548 18.7288 5.11873C19.072 5.46197 19.6286 5.46203 19.9718 5.11873L21.2147 3.87578C21.558 3.53254 21.558 2.97607 21.2147 2.63283Z" fill="#52509D"/>
</svg>
