<svg width="30" height="30" viewBox="0 0 30 30" fill="none" xmlns="http://www.w3.org/2000/svg">
<path d="M4.45312 14.0625C5.16266 14.0625 5.80719 13.7803 6.28166 13.3228L8.86848 14.6162C8.85521 14.7228 8.84766 14.8311 8.84766 14.9414C8.84766 16.3953 10.0305 17.5781 11.4844 17.5781C12.9382 17.5781 14.1211 16.3953 14.1211 14.9414C14.1211 14.5349 14.0284 14.1495 13.8634 13.8052L17.3795 10.2892C17.7237 10.4542 18.1091 10.5469 18.5156 10.5469C19.9695 10.5469 21.1523 9.36401 21.1523 7.91016C21.1523 7.6355 21.11 7.37068 21.0317 7.12166L24.0864 4.83078C24.5048 5.11024 25.0069 5.27344 25.5469 5.27344C27.0007 5.27344 28.1836 4.09058 28.1836 2.63672C28.1836 1.18286 27.0007 0 25.5469 0C24.093 0 22.9102 1.18286 22.9102 2.63672C22.9102 2.91138 22.9525 3.17619 23.0308 3.42522L19.9761 5.71609C19.5577 5.43663 19.0556 5.27344 18.5156 5.27344C17.0618 5.27344 15.8789 6.4563 15.8789 7.91016C15.8789 8.31665 15.9716 8.70209 16.1366 9.04633L12.6205 12.5624C12.2763 12.3974 11.8909 12.3047 11.4844 12.3047C10.7748 12.3047 10.1303 12.5869 9.65584 13.0444L7.06902 11.751C7.08229 11.6444 7.08984 11.5361 7.08984 11.4258C7.08984 9.97192 5.90698 8.78906 4.45312 8.78906C2.99927 8.78906 1.81641 9.97192 1.81641 11.4258C1.81641 12.8796 2.99927 14.0625 4.45312 14.0625ZM25.5469 1.75781C26.0314 1.75781 26.4258 2.15218 26.4258 2.63672C26.4258 3.12126 26.0314 3.51562 25.5469 3.51562C25.0623 3.51562 24.668 3.12126 24.668 2.63672C24.668 2.15218 25.0623 1.75781 25.5469 1.75781ZM18.5156 7.03125C19.0002 7.03125 19.3945 7.42561 19.3945 7.91016C19.3945 8.3947 19.0002 8.78906 18.5156 8.78906C18.0311 8.78906 17.6367 8.3947 17.6367 7.91016C17.6367 7.42561 18.0311 7.03125 18.5156 7.03125ZM11.4844 14.0625C11.9689 14.0625 12.3633 14.4569 12.3633 14.9414C12.3633 15.4259 11.9689 15.8203 11.4844 15.8203C10.9998 15.8203 10.6055 15.4259 10.6055 14.9414C10.6055 14.4569 10.9998 14.0625 11.4844 14.0625ZM4.45312 10.5469C4.93767 10.5469 5.33203 10.9412 5.33203 11.4258C5.33203 11.9103 4.93767 12.3047 4.45312 12.3047C3.96858 12.3047 3.57422 11.9103 3.57422 11.4258C3.57422 10.9412 3.96858 10.5469 4.45312 10.5469Z" fill="white"/>
<path d="M29.1211 28.2422H28.1836V9.66797C28.1836 9.18251 27.7901 8.78906 27.3047 8.78906H23.7891C23.3036 8.78906 22.9102 9.18251 22.9102 9.66797V28.2422H21.1523V14.9414C21.1523 14.4559 20.7589 14.0625 20.2734 14.0625H16.7578C16.2724 14.0625 15.8789 14.4559 15.8789 14.9414V28.2422H14.1211V21.9727C14.1211 21.4872 13.7276 21.0938 13.2422 21.0938H9.72656C9.2411 21.0938 8.84766 21.4872 8.84766 21.9727V28.2422H7.08984V18.457C7.08984 17.9716 6.6964 17.5781 6.21094 17.5781H2.69531C2.20985 17.5781 1.81641 17.9716 1.81641 18.457V28.2422H0.878906C0.393448 28.2422 0 28.6356 0 29.1211C0 29.6066 0.393448 30 0.878906 30H29.1211C29.6066 30 30 29.6066 30 29.1211C30 28.6356 29.6066 28.2422 29.1211 28.2422ZM24.668 10.5469H26.4258V28.2422H24.668V10.5469ZM17.6367 15.8203H19.3945V28.2422H17.6367V15.8203ZM10.6055 22.8516H12.3633V28.2422H10.6055V22.8516ZM3.57422 19.3359H5.33203V28.2422H3.57422V19.3359Z" fill="white"/>
</svg>
