<svg width="713" height="748" viewBox="0 0 713 748" fill="none" xmlns="http://www.w3.org/2000/svg">
<circle cx="28.2394" cy="417.239" r="9.23944" fill="#52509D" fill-opacity="0.6"/>
<circle cx="64.6197" cy="417.239" r="9.23944" fill="#52509D" fill-opacity="0.6"/>
<circle cx="101" cy="417.239" r="9.23944" fill="#52509D" fill-opacity="0.6"/>
<circle cx="137.38" cy="417.239" r="9.23944" fill="#52509D" fill-opacity="0.6"/>
<circle cx="173.761" cy="417.239" r="9.23944" fill="#52509D" fill-opacity="0.6"/>
<circle cx="28.2394" cy="453.042" r="9.23944" fill="#52509D" fill-opacity="0.6"/>
<circle cx="64.6197" cy="453.042" r="9.23944" fill="#52509D" fill-opacity="0.6"/>
<circle cx="101" cy="453.042" r="9.23944" fill="#52509D" fill-opacity="0.6"/>
<circle cx="137.38" cy="453.042" r="9.23944" fill="#52509D" fill-opacity="0.6"/>
<circle cx="173.761" cy="453.042" r="9.23944" fill="#52509D" fill-opacity="0.6"/>
<circle cx="28.2394" cy="488.845" r="9.23944" fill="#52509D" fill-opacity="0.6"/>
<circle cx="64.6197" cy="488.845" r="9.23944" fill="#52509D" fill-opacity="0.6"/>
<circle cx="101" cy="488.845" r="9.23944" fill="#52509D" fill-opacity="0.6"/>
<circle cx="137.38" cy="488.845" r="9.23944" fill="#52509D" fill-opacity="0.6"/>
<circle cx="173.761" cy="488.845" r="9.23944" fill="#52509D" fill-opacity="0.6"/>
<circle cx="28.2394" cy="524.648" r="9.23944" fill="#52509D" fill-opacity="0.6"/>
<circle cx="64.6197" cy="524.648" r="9.23944" fill="#52509D" fill-opacity="0.6"/>
<circle cx="101" cy="524.648" r="9.23944" fill="#52509D" fill-opacity="0.6"/>
<circle cx="137.38" cy="524.648" r="9.23944" fill="#52509D" fill-opacity="0.6"/>
<circle cx="173.761" cy="524.648" r="9.23944" fill="#52509D" fill-opacity="0.6"/>
<circle cx="28.2394" cy="560.451" r="9.23944" fill="#52509D" fill-opacity="0.6"/>
<circle cx="64.6197" cy="560.451" r="9.23944" fill="#52509D" fill-opacity="0.6"/>
<circle cx="101" cy="560.451" r="9.23944" fill="#52509D" fill-opacity="0.6"/>
<circle cx="137.38" cy="560.451" r="9.23944" fill="#52509D" fill-opacity="0.6"/>
<circle cx="173.761" cy="560.451" r="9.23944" fill="#52509D" fill-opacity="0.6"/>
</svg>
